<svg width="200" height="47" viewBox="0 0 200 47" fill="none" xmlns="http://www.w3.org/2000/svg">
<path d="M25.84 8.4C25.76 8.10666 27.1067 7.96 29.88 7.96C32.9467 7.96 34.52 8.21333 34.6 8.72L36.56 25.56L40.8 8.52C40.9333 8.12 41.9733 7.92 43.92 7.92C45.8667 7.92 46.9067 8.10667 47.04 8.48L51.2 25.64L53.52 8.64C53.5733 8.34667 54.1867 8.14666 55.36 8.04C56.5333 7.93333 57.48 7.88 58.2 7.88C61 7.88 62.36 8.06667 62.28 8.44L57.44 34.96C57.3333 35.36 56.5733 35.6533 55.16 35.84C53.7467 36.0267 52.6 36.12 51.72 36.12C48.4133 36.12 46.68 35.7467 46.52 35L43.8 24L40.84 34.96C40.7333 35.44 39.8 35.7867 38.04 36C37.1333 36.08 36.2267 36.12 35.32 36.12L32.76 36C31 35.8133 30.0667 35.48 29.96 35L25.84 8.4ZM72.245 35.76C72.245 35.9733 71.0183 36.08 68.565 36.08C66.1383 36.08 64.925 35.9867 64.925 35.8V16.16C64.925 15.9733 66.1383 15.88 68.565 15.88C71.0183 15.88 72.245 15.96 72.245 16.12V35.76ZM72.245 13.76C72.245 13.9467 71.0183 14.04 68.565 14.04C66.1383 14.04 64.925 13.96 64.925 13.8V8.04C64.925 7.77333 66.1383 7.64 68.565 7.64C71.0183 7.64 72.245 7.72 72.245 7.88V13.76ZM84.2225 35.76C84.2225 35.9467 83.2625 36.04 81.3425 36.04C78.6758 35.96 77.3425 35.8133 77.3425 35.6V22.64H76.3025C75.6092 22.64 75.1558 22.0533 74.9425 20.88C74.8892 20.5333 74.8625 20.1867 74.8625 19.84C74.8625 19.0133 75.0225 18.1867 75.3425 17.36C75.8225 16.1867 76.5692 15.6 77.5825 15.6C78.5958 15.6 79.5025 15.84 80.3025 16.32C81.1025 16.8 81.6358 17.28 81.9025 17.76C83.5825 16.32 85.5825 15.6 87.9025 15.6C90.2225 15.6 91.9025 16.2267 92.9425 17.48C93.9825 18.7333 94.5025 20.7867 94.5025 23.64V35.64C94.5025 35.96 93.3558 36.12 91.0625 36.12C88.7958 36.12 87.6625 35.96 87.6625 35.64V24.08C87.6625 22.7467 87.1958 22.08 86.2625 22.08C85.9958 22.08 85.6225 22.2 85.1425 22.44C84.6625 22.6533 84.3558 22.8133 84.2225 22.92V35.76ZM105.254 36C102.667 36 100.667 35.1733 99.2538 33.52C97.8404 31.84 97.1338 29.3733 97.1338 26.12C97.1338 22.84 98.0538 20.28 99.8938 18.44C101.76 16.5733 104.227 15.64 107.294 15.64C110.387 15.64 112.934 16.32 114.934 17.68V37.6C114.934 39.5733 114.134 41.08 112.534 42.12C110.934 43.1867 108.88 43.72 106.374 43.72C103.867 43.72 101.627 43.4 99.6538 42.76C99.3871 42.12 99.2538 41.5467 99.2538 41.04C99.2538 39.3333 99.5338 38.08 100.094 37.28C101.88 38.0533 103.787 38.44 105.814 38.44C107.28 38.44 108.014 37.92 108.014 36.88V35.68C106.867 35.8933 105.947 36 105.254 36ZM107.094 22.16C105.307 22.16 104.414 23.5067 104.414 26.2C104.414 27.88 104.76 28.9733 105.454 29.48C105.907 29.8267 106.36 30 106.814 30C107.267 30 107.667 29.96 108.014 29.88V22.28C107.694 22.2 107.387 22.16 107.094 22.16ZM119.359 28.8C121.519 30.1067 123.225 30.76 124.479 30.76C125.279 30.76 125.679 30.48 125.679 29.92C125.679 29.52 124.985 29 123.599 28.36C120.265 27 118.599 24.7733 118.599 21.68C118.599 19.7067 119.319 18.2 120.759 17.16C122.199 16.12 123.919 15.6 125.919 15.6C127.945 15.6 129.652 15.8133 131.039 16.24C132.452 16.6667 133.159 17.2267 133.159 17.92C133.159 18.5067 132.865 19.28 132.279 20.24C131.719 21.2 131.332 21.72 131.119 21.8C129.972 21.16 128.732 20.84 127.399 20.84C126.679 20.84 126.319 21.0933 126.319 21.6C126.319 21.92 126.452 22.2 126.719 22.44C127.012 22.6533 127.532 22.9333 128.279 23.28C129.025 23.6 129.639 23.8933 130.119 24.16C130.625 24.4267 131.185 24.8 131.799 25.28C133.079 26.2933 133.719 27.6133 133.719 29.24C133.719 31.3733 133.012 33.1067 131.599 34.44C130.185 35.7467 128.052 36.4 125.199 36.4C123.305 36.4 121.585 36.08 120.039 35.44C118.492 34.8 117.719 33.92 117.719 32.8C117.719 32.0533 117.892 31.2667 118.239 30.44C118.612 29.6133 118.985 29.0667 119.359 28.8ZM148.607 36.4C144.873 36.4 141.82 35.1733 139.447 32.72C137.1 30.2667 135.927 26.6933 135.927 22C135.927 17.28 137.113 13.7067 139.487 11.28C141.887 8.85333 144.967 7.64 148.727 7.64C152.513 7.64 155.567 8.84 157.887 11.24C160.207 13.6133 161.367 17.2267 161.367 22.08C161.367 26.9067 160.18 30.5067 157.807 32.88C155.433 35.2267 152.367 36.4 148.607 36.4ZM148.647 15.32C147.367 15.32 146.287 15.9067 145.407 17.08C144.553 18.2533 144.127 19.9067 144.127 22.04C144.127 24.1467 144.54 25.7733 145.367 26.92C146.193 28.04 147.273 28.6 148.607 28.6C149.967 28.6 151.06 28.0267 151.887 26.88C152.74 25.7333 153.167 24.0933 153.167 21.96C153.167 19.8267 152.727 18.1867 151.847 17.04C150.993 15.8933 149.927 15.32 148.647 15.32ZM172.738 35.76C172.738 35.9467 171.778 36.04 169.858 36.04C167.191 35.96 165.858 35.8133 165.858 35.6V22.64H164.818C164.125 22.64 163.671 22.0533 163.458 20.88C163.405 20.5333 163.378 20.1867 163.378 19.84C163.378 19.0133 163.538 18.1867 163.858 17.36C164.338 16.1867 165.085 15.6 166.098 15.6C167.111 15.6 168.018 15.84 168.818 16.32C169.618 16.8 170.151 17.28 170.418 17.76C172.098 16.32 174.098 15.6 176.418 15.6C178.738 15.6 180.418 16.2267 181.458 17.48C182.498 18.7333 183.018 20.7867 183.018 23.64V35.64C183.018 35.96 181.871 36.12 179.578 36.12C177.311 36.12 176.178 35.96 176.178 35.64V24.08C176.178 22.7467 175.711 22.08 174.778 22.08C174.511 22.08 174.138 22.2 173.658 22.44C173.178 22.6533 172.871 22.8133 172.738 22.92V35.76Z" fill="#3355CC"/>
<path d="M196.77 31.5814C195.415 31.5814 194.315 30.4816 194.315 29.1242C194.315 27.7698 195.415 26.6697 196.77 26.6697C198.127 26.6697 199.227 27.7698 199.227 29.1242C199.227 30.4816 198.127 31.5814 196.77 31.5814ZM196.77 26.0443C189.501 26.0443 196.77 34.7979 196.77 34.7979C196.77 34.7979 204.038 26.0443 196.77 26.0443Z" fill="#3355CC"/>
<path d="M196.77 30.9043C195.788 30.9043 194.991 30.1075 194.991 29.1239C194.991 28.1419 195.788 27.3454 196.77 27.3454C197.751 27.3454 198.551 28.1419 198.551 29.1239C198.551 30.1075 197.751 30.9043 196.77 30.9043ZM196.77 27.0043C195.599 27.0043 194.65 27.9535 194.65 29.1239C194.65 30.2962 195.599 31.2451 196.77 31.2451C197.941 31.2451 198.89 30.2962 198.89 29.1239C198.89 27.9535 197.941 27.0043 196.77 27.0043Z" fill="#3355CC"/>
<path d="M197.594 36.5063C197.594 36.9618 197.224 37.3311 196.77 37.3311C196.313 37.3311 195.945 36.9618 195.945 36.5063C195.945 36.0505 196.313 35.6813 196.77 35.6813C197.224 35.6813 197.594 36.0505 197.594 36.5063Z" fill="#3355CC"/>
<path d="M3.86568 46.375C4.62369 46.5731 5.42998 46.3531 5.98199 45.7968L11.6003 40.1215C11.9897 39.7271 12.5594 39.5684 13.0954 39.7036L16.0518 40.4468C16.7872 40.6322 17.5549 40.6478 18.2984 40.4954L18.7812 40.3964C19.1675 40.3164 19.2946 39.8293 18.9953 39.5716L18.6251 39.2494C18.0522 38.7513 17.373 38.39 16.6408 38.1904L13.7005 37.3938C13.1646 37.2477 12.7477 36.8313 12.5997 36.297L10.4769 28.5979C10.2693 27.8421 9.67547 27.256 8.91585 27.058C9.73502 30.3797 9.68352 34.2498 9.61592 35.854C9.60788 36.0724 9.39705 36.2248 9.18462 36.1683L9.18784 35.5051C9.18784 35.1814 8.93999 34.9128 8.61812 34.8877L7.75391 34.8216C7.63642 34.8122 7.51893 34.8436 7.42237 34.9082C7.31937 34.9741 7.19706 35.0039 7.07636 34.9914L6.76575 34.96L7.0844 35.1045C7.18258 35.15 7.26466 35.2255 7.31938 35.3182L7.41272 35.4769L7.56561 35.7283L6.94278 35.5585C6.54205 35.4502 6.12845 35.3935 5.71485 35.3889L3.6275 35.3638L3.39575 33.0445C3.34425 32.548 2.95962 32.1505 2.46554 32.0861L1.71559 31.9872L2.05838 35.3464L1.4774 35.3403C1.38245 35.3387 1.34703 35.4658 1.43233 35.5115L1.9409 35.7912L0 38.5517L0.706515 38.8347C1.16679 39.0201 1.69466 38.8644 1.98273 38.4607L3.33782 36.5532L5.15157 37.543C5.51529 37.7426 5.90314 37.895 6.30548 37.9956L6.93152 38.1528L6.67564 38.2973L6.51791 38.39C6.42295 38.4449 6.31514 38.4702 6.2057 38.4607L5.85807 38.4323L6.14455 38.555C6.25559 38.6037 6.34892 38.6902 6.40525 38.7985C6.45836 38.9023 6.54528 38.9855 6.6515 39.0358L7.44008 39.4004C7.73138 39.537 8.0806 39.4239 8.23832 39.1411L8.56019 38.5628C8.77263 38.6161 8.88046 38.8519 8.78068 39.0482C8.05485 40.4782 6.20569 43.8784 3.86568 46.375Z" fill="#3355CC"/>
<path d="M96.4426 2.22414C96.2113 2.22414 96.0093 2.05587 95.9747 1.82167C95.9375 1.56409 96.1156 1.32378 96.3735 1.28603C97.4288 1.13212 98.5134 1.03456 99.5926 1.00001C99.6006 1.00001 99.6033 1.00001 99.6086 1.00001C99.8638 1.00001 100.074 1.20124 100.082 1.45564C100.087 1.71642 99.885 1.93333 99.6245 1.94263C98.5798 1.97586 97.5325 2.06997 96.5117 2.21937C96.4878 2.22256 96.4638 2.22414 96.4426 2.22414ZM105.946 2.39853C105.919 2.39853 105.893 2.39694 105.866 2.39215C104.824 2.21139 103.777 2.08273 102.756 2.00724C102.495 1.98836 102.301 1.76213 102.32 1.50295C102.339 1.2435 102.559 1.04866 102.825 1.06753C103.878 1.14462 104.954 1.27806 106.026 1.46201C106.284 1.50747 106.456 1.75098 106.411 2.00724C106.371 2.23664 106.172 2.39853 105.946 2.39853ZM90.3099 3.86431C90.1212 3.86431 89.9431 3.75293 89.8713 3.56738C89.7756 3.32548 89.8952 3.0506 90.1371 2.95464C91.1393 2.55882 92.1734 2.21618 93.2074 1.93971C93.4573 1.87352 93.7152 2.02291 93.7843 2.27439C93.8508 2.5256 93.7019 2.78345 93.4493 2.85097C92.4498 3.11813 91.453 3.44802 90.4827 3.83134C90.4242 3.855 90.3657 3.86431 90.3099 3.86431ZM112.092 4.0246C112.039 4.0246 111.986 4.01689 111.935 3.99802C110.933 3.64287 109.923 3.33026 108.931 3.06629C108.681 2.99877 108.53 2.74091 108.596 2.48944C108.665 2.23664 108.923 2.08884 109.173 2.15477C110.189 2.42511 111.223 2.7457 112.249 3.10855C112.493 3.19654 112.624 3.4653 112.536 3.71039C112.467 3.90365 112.283 4.0246 112.092 4.0246ZM117.916 6.57336C117.844 6.57336 117.77 6.55608 117.701 6.51993C116.757 6.02974 115.803 5.57225 114.859 5.15756C114.62 5.05389 114.514 4.77583 114.617 4.53685C114.721 4.29813 115 4.18967 115.237 4.29494C116.199 4.71761 117.175 5.18415 118.137 5.6839C118.368 5.80486 118.456 6.08929 118.336 6.32029C118.251 6.48218 118.089 6.57336 117.916 6.57336ZM84.6903 6.82297C84.5388 6.82297 84.3873 6.74775 84.2969 6.61271C84.1533 6.3942 84.2118 6.10205 84.4271 5.95903C85.3363 5.3556 86.2693 4.79922 87.1997 4.30744C87.431 4.18649 87.7154 4.27448 87.8377 4.50389C87.96 4.7349 87.8723 5.01933 87.641 5.14188C86.7372 5.61797 85.8334 6.15681 84.9482 6.74296C84.8684 6.79639 84.7807 6.82297 84.6903 6.82297ZM123.376 9.84624C123.286 9.84624 123.193 9.81939 123.113 9.76437C122.236 9.16732 121.343 8.59552 120.452 8.0612C120.232 7.92776 120.157 7.63853 120.293 7.4155C120.426 7.19247 120.715 7.12017 120.939 7.25362C121.842 7.79564 122.752 8.3786 123.642 8.98363C123.857 9.13116 123.916 9.42358 123.767 9.6389C123.677 9.77394 123.528 9.84624 123.376 9.84624ZM79.722 10.7875C79.597 10.7875 79.4694 10.737 79.3764 10.6381C79.1983 10.4481 79.2089 10.1496 79.3977 9.97198C80.1978 9.22394 81.0139 8.51391 81.83 7.86183C82.032 7.69994 82.3271 7.73131 82.4892 7.93547C82.6541 8.13829 82.6195 8.43522 82.4175 8.59711C81.6226 9.23351 80.8252 9.92785 80.0436 10.6602C79.9532 10.745 79.8363 10.7875 79.722 10.7875ZM128.438 13.7021C128.331 13.7021 128.222 13.6659 128.135 13.5904C128.015 13.4884 127.893 13.3863 127.77 13.2842C127.085 12.7121 126.38 12.148 125.673 11.6108C125.468 11.4521 125.426 11.1568 125.585 10.9492C125.742 10.7418 126.04 10.7025 126.245 10.8596C126.962 11.408 127.68 11.98 128.374 12.5598C128.499 12.6635 128.621 12.7672 128.743 12.8708C128.943 13.0391 128.969 13.336 128.799 13.5354C128.706 13.6455 128.573 13.7021 128.438 13.7021ZM75.365 15.4225C75.2587 15.4225 75.1524 15.3864 75.062 15.3127C74.8626 15.1445 74.8387 14.8475 75.0035 14.6479C75.7106 13.8058 76.4257 12.9982 77.1301 12.2456C77.3083 12.0553 77.606 12.046 77.7947 12.2235C77.9861 12.4011 77.9967 12.6996 77.8186 12.8897C77.1248 13.6298 76.423 14.4249 75.7266 15.2529C75.6362 15.3646 75.5006 15.4225 75.365 15.4225ZM133.18 17.9476C133.066 17.9476 132.949 17.9051 132.858 17.8203C132.008 17.0252 131.242 16.3229 130.522 15.674C130.328 15.4996 130.312 15.2027 130.487 15.0078C130.66 14.8146 130.958 14.7989 131.152 14.9733C131.877 15.6253 132.648 16.3325 133.502 17.1321C133.693 17.3096 133.701 17.6082 133.526 17.7982C133.433 17.8974 133.308 17.9476 133.18 17.9476ZM71.4866 20.4663C71.3909 20.4663 71.2926 20.4366 71.2101 20.3768C71.0001 20.2244 70.9523 19.9291 71.1038 19.7183C71.4255 19.2754 71.7471 18.8323 72.0714 18.3939C72.3851 17.9665 72.6988 17.5486 73.0045 17.1493C73.164 16.942 73.459 16.9027 73.6664 17.0614C73.8737 17.2201 73.9136 17.5157 73.7541 17.723C73.4511 18.1172 73.14 18.5306 72.829 18.9517C72.5074 19.39 72.1884 19.83 71.8694 20.2699C71.7764 20.3988 71.6328 20.4663 71.4866 20.4663ZM137.803 22.3237C137.686 22.3237 137.569 22.2812 137.478 22.1948C136.912 21.6604 136.349 21.1248 135.785 20.5873L135.171 20.0027C134.982 19.8238 134.974 19.525 135.152 19.3366C135.331 19.1481 135.631 19.1401 135.82 19.3193L136.434 19.9039C136.997 20.4398 137.561 20.9754 138.124 21.5097C138.313 21.6889 138.324 21.9874 138.143 22.1759C138.053 22.2748 137.925 22.3237 137.803 22.3237ZM67.765 25.6311C67.6693 25.6311 67.571 25.6014 67.4885 25.5399C67.2785 25.386 67.2334 25.0907 67.3875 24.8799C68.0308 24.0016 68.6635 23.1249 69.2483 22.3064C69.3999 22.0943 69.6949 22.0454 69.9049 22.1964C70.1176 22.3487 70.1681 22.6427 70.0139 22.8548C69.4264 23.6749 68.7964 24.5564 68.1451 25.4379C68.0548 25.5636 67.9112 25.6311 67.765 25.6311ZM142.492 26.6227C142.383 26.6227 142.271 26.5849 142.184 26.5062C141.434 25.851 140.658 25.1534 139.807 24.3724C139.616 24.1965 139.605 23.8979 139.781 23.7063C139.956 23.5146 140.254 23.5021 140.445 23.6781C141.288 24.4543 142.059 25.1471 142.803 25.7978C143 25.969 143.018 26.2659 142.848 26.4624C142.755 26.5692 142.625 26.6227 142.492 26.6227ZM147.431 30.6292C147.335 30.6292 147.237 30.5979 147.152 30.5365C146.328 29.9269 145.477 29.2655 144.624 28.5709C144.422 28.4074 144.393 28.1105 144.558 27.9079C144.72 27.7067 145.017 27.6753 145.219 27.8404C146.062 28.5255 146.902 29.1775 147.713 29.7775C147.923 29.9333 147.965 30.2286 147.811 30.4376C147.721 30.5633 147.577 30.6292 147.431 30.6292ZM63.8414 30.6404C63.735 30.6404 63.6261 30.6027 63.5357 30.5272C63.339 30.3589 63.315 30.0606 63.4852 29.8626C64.1311 29.1036 64.7851 28.3022 65.4789 27.4098C65.6384 27.2054 65.9361 27.1679 66.1408 27.3282C66.3455 27.4882 66.3827 27.7838 66.2205 27.9896C65.5188 28.8915 64.8568 29.7055 64.2002 30.4753C64.1072 30.5838 63.9769 30.6404 63.8414 30.6404ZM152.748 34.1142C152.668 34.1142 152.588 34.0954 152.516 34.0531C151.607 33.5345 150.685 32.9688 149.778 32.3717C149.56 32.2287 149.502 31.9366 149.645 31.7197C149.786 31.503 150.079 31.4416 150.297 31.5846C151.187 32.1708 152.091 32.7253 152.982 33.2343C153.208 33.3633 153.287 33.6509 153.157 33.8771C153.072 34.0294 152.912 34.1142 152.748 34.1142ZM59.418 35.2079C59.2904 35.2079 59.1601 35.1544 59.0671 35.0508C58.8943 34.8559 58.9103 34.559 59.1043 34.3846C59.8619 33.7104 60.6222 32.9752 61.3692 32.2005C61.5499 32.0137 61.8477 32.0089 62.0364 32.1894C62.2225 32.3685 62.2278 32.6673 62.047 32.8558C61.2841 33.6461 60.5052 34.3987 59.7317 35.0885C59.6413 35.1685 59.5296 35.2079 59.418 35.2079ZM158.476 36.8751C158.418 36.8751 158.359 36.864 158.301 36.8403C157.301 36.4429 156.312 36.0077 155.358 35.5489C155.124 35.4357 155.026 35.1544 155.14 34.9205C155.252 34.6863 155.534 34.5872 155.767 34.7004C156.701 35.1483 157.671 35.5742 158.652 35.9652C158.894 36.0612 159.011 36.336 158.915 36.5779C158.84 36.7619 158.662 36.8751 158.476 36.8751ZM164.527 38.8407C164.487 38.8407 164.447 38.8359 164.407 38.825C163.368 38.5578 162.331 38.2577 161.323 37.931C161.076 37.8507 160.941 37.5852 161.023 37.3369C161.103 37.0886 161.368 36.9536 161.613 37.0338C162.602 37.3542 163.623 37.6498 164.641 37.9121C164.896 37.9765 165.045 38.2343 164.981 38.4855C164.928 38.6992 164.737 38.8407 164.527 38.8407ZM54.3194 39.0026C54.1626 39.0026 54.0057 38.921 53.918 38.7747C53.7824 38.553 53.8515 38.2625 54.0748 38.1275C54.9574 37.5931 55.832 37.0022 56.6747 36.3738C56.882 36.2183 57.1771 36.2605 57.3339 36.4697C57.4907 36.6787 57.4455 36.974 57.2382 37.1295C56.3689 37.7768 55.4704 38.3834 54.564 38.9334C54.4895 38.9805 54.4045 39.0026 54.3194 39.0026ZM186.625 39.884C186.399 39.884 186.197 39.7174 186.16 39.4848C186.12 39.2288 186.295 38.9869 186.553 38.9459C187.592 38.7825 188.635 38.5847 189.65 38.3598C189.905 38.3034 190.155 38.4635 190.214 38.7181C190.269 38.9728 190.11 39.224 189.855 39.2806C188.821 39.51 187.757 39.7113 186.699 39.8777C186.675 39.8809 186.651 39.884 186.625 39.884ZM170.771 40.052C170.75 40.052 170.728 40.0505 170.707 40.0475C169.649 39.9061 168.583 39.7315 167.538 39.5289C167.286 39.4803 167.116 39.2336 167.166 38.9773C167.217 38.7213 167.461 38.5546 167.719 38.6035C168.745 38.8029 169.79 38.9741 170.832 39.1126C171.09 39.1472 171.271 39.3843 171.239 39.6419C171.204 39.8793 171.002 40.052 170.771 40.052ZM180.295 40.5C180.043 40.5 179.833 40.3003 179.822 40.0475C179.814 39.7865 180.016 39.5682 180.277 39.5571C181.327 39.518 182.385 39.4457 183.424 39.3449C183.682 39.3216 183.913 39.5084 183.94 39.7676C183.964 40.0271 183.773 40.2578 183.515 40.2831C182.459 40.3851 181.38 40.459 180.314 40.5C180.309 40.5 180.301 40.5 180.295 40.5ZM177.113 40.5313C177.111 40.5313 177.106 40.5313 177.106 40.5313C176.04 40.5125 174.963 40.4606 173.9 40.3806C173.639 40.3617 173.445 40.1355 173.464 39.8745C173.485 39.6153 173.711 39.422 173.971 39.4409C175.016 39.5193 176.077 39.5698 177.121 39.59C177.382 39.5948 177.589 39.8086 177.584 40.0693C177.579 40.3272 177.369 40.5313 177.113 40.5313ZM48.5828 41.7334C48.3888 41.7334 48.208 41.6141 48.1389 41.4205C48.0512 41.1773 48.1761 40.907 48.4233 40.8174C49.4175 40.459 50.3905 40.0536 51.3182 39.6137C51.5548 39.5023 51.8339 39.6028 51.9456 39.8383C52.0572 40.0725 51.9588 40.3538 51.7222 40.4654C50.7679 40.9179 49.7658 41.3357 48.7423 41.705C48.6892 41.7238 48.636 41.7334 48.5828 41.7334ZM42.4342 43.3534C42.2083 43.3534 42.0089 43.1915 41.9717 42.9621C41.9238 42.7061 42.0966 42.4623 42.3545 42.4169C43.3885 42.2377 44.4226 42.0131 45.4248 41.7491C45.6773 41.6832 45.9325 41.8339 45.999 42.0854C46.0654 42.3384 45.9166 42.596 45.664 42.662C44.6353 42.9323 43.5773 43.1617 42.5166 43.347C42.4874 43.3518 42.4608 43.3534 42.4342 43.3534ZM32.9229 43.8215C32.9096 43.8215 32.8989 43.8199 32.8883 43.8199C31.8117 43.7399 30.7351 43.6142 29.6877 43.4461C29.4299 43.4036 29.2571 43.1633 29.297 42.9055C29.3395 42.6479 29.5787 42.4735 29.8366 42.5142C30.8574 42.6792 31.9074 42.8018 32.9574 42.8789C33.218 42.8993 33.412 43.1256 33.3934 43.3847C33.3748 43.633 33.1674 43.8215 32.9229 43.8215ZM36.1022 43.9252C35.8443 43.9252 35.6343 43.7162 35.6317 43.457C35.629 43.1979 35.839 42.9841 36.0995 42.9825C37.1416 42.973 38.1969 42.9214 39.239 42.827C39.4968 42.8066 39.7281 42.995 39.7494 43.2545C39.7733 43.5137 39.5819 43.7431 39.324 43.7665C38.2581 43.8624 37.1761 43.9159 36.1075 43.9252C36.1048 43.9252 36.1048 43.9252 36.1022 43.9252Z" fill="#3355CC"/>
<path d="M192.853 38.4968C192.649 38.4968 192.464 38.363 192.405 38.1572C192.329 37.9074 192.474 37.6452 192.724 37.5729C193.221 37.4284 193.721 37.2725 194.21 37.114C194.455 37.0324 194.723 37.1675 194.804 37.4141C194.884 37.6624 194.75 37.9278 194.503 38.0097C194.003 38.1731 193.495 38.3303 192.985 38.4778C192.942 38.4904 192.899 38.4968 192.853 38.4968Z" fill="#3355CC"/>
</svg>
